PathFileType	4	(X/Y/Z)	Patient4_TMGait_0pt8_01_left_23.trc.trc
DataRate	CameraRate	NumFrames	NumMarkers	Units	OrigDataRate	OrigDataStartFrame	OrigNumFrames
89.171974522293	89.171974522293	4	33	mm	89.171974522293	18	       141
Frame#	Time	Sacral			L.Shoulder			Chest			R.Shoulder			Neck			R.ASIS			L.ASIS			R.Thigh.Superior			R.Thigh.Lateral			R.Thigh.Inferior			R.Patella			L.Thigh.Superior			L.Thigh.Lateral			L.Thigh.Inferior			L.Patella			L.Shank.Superior			L.Shank.Lateral			L.Shank.Inferior			R.Shank.Superior			R.Shank.Lateral			R.Shank.Inferior			R.Heel			R.Midfoot.Superior			R.Midfoot.Lateral			R.Toe			L.Heel			L.Midfoot.Lateral			L.Midfoot.Superior			L.Toe			L.Elbow			L.Wrist			R.Elbow			R.Wrist			
		X1	Y1	Z1	X2	Y2	Z2	X3	Y3	Z3	X4	Y4	Z4	X5	Y5	Z5	X6	Y6	Z6	X7	Y7	Z7	X8	Y8	Z8	X9	Y9	Z9	X10	Y10	Z10	X11	Y11	Z11	X12	Y12	Z12	X13	Y13	Z13	X14	Y14	Z14	X15	Y15	Z15	X16	Y16	Z16	X17	Y17	Z17	X18	Y18	Z18	X19	Y19	Z19	X20	Y20	Z20	X21	Y21	Z21	X22	Y22	Z22	X23	Y23	Z23	X24	Y24	Z24	X25	Y25	Z25	X26	Y26	Z26	X27	Y27	Z27	X28	Y28	Z28	X29	Y29	Z29	X30	Y30	Z30	X31	Y31	Z31	X32	Y32	Z32	X33	Y33	Z33	

18	25.260642857143	881.865487351601	1005.755831429318	518.200293756117	1035.378144955372	1429.285268720817	322.571016793059	1160.814347607030	1359.315109641340	467.024966653880	1103.670473290982	1432.863079718259	651.138253122665	1038.814908635408	1487.768323752373	480.647629960672	1114.461577792340	932.837473095012	609.024341801433	1075.574841783597	956.213830557041	336.956144296347	1101.822786998214	719.502570964790	581.899308770555	992.198895559445	629.700025110780	643.862772097830	1047.467000846160	562.624657150463	562.907171099422	1025.387397866616	480.179342894739	566.839734992257	1150.483932718624	773.241205185318	367.354345541810	1104.799565740269	644.832319818478	286.552955970612	1209.569064818786	588.017391992923	349.233566830545	1240.584219211424	532.274028269390	344.496235636273	1234.757664406840	463.047454620400	333.764831605922	1193.578870384911	322.244732839862	286.057211826114	1301.096813342379	243.164560332948	338.229287889045	986.630910647737	398.354464784467	572.082584399734	903.153955838875	302.011614588682	630.948845930356	935.637724050088	204.429313702974	564.886796419733	790.620158612169	45.301270196318	521.887356251845	959.447703486895	96.501713038762	570.817109040616	867.689077287670	37.269850474018	602.109705870949	1076.198063707584	40.849421378488	608.265269984646	1254.238500018809	54.000325340264	383.299061411321	1329.997735920067	63.157424535757	305.211631549649	1385.307912990315	154.323177429053	319.442435768906	1522.660058831569	146.971216628490	299.900577692867	888.762180891449	1105.089934639363	238.773250904646	832.856411438606	853.275629865368	254.530266525256	1275.743768824711	1138.897783400173	756.205298239810	1511.209771982943	1208.296689465719	692.530374022946	
19	25.271857142857	882.442025900983	1004.644049780715	516.394051619291	1035.355131255469	1428.460175024096	321.570376682623	1160.875684541739	1358.331626807493	465.909640121514	1103.495743913320	1431.743504204719	649.894921722138	1038.590824955397	1486.532642130680	479.681424647039	1114.526859434711	931.601822058394	607.914600536383	1076.790407537713	954.621318443109	335.556713923608	1100.357313008055	717.944754301862	581.374855478407	989.748598502271	629.052930292796	643.257776072995	1044.573791619935	561.368672641537	562.503504724222	1021.583094693164	478.870510133244	566.359697051623	1151.710051835955	772.134414427035	366.954559584199	1105.415394658174	642.614020913000	287.512751462870	1210.586049104646	586.528427235667	349.336572277550	1241.135545912279	529.901273543989	345.272515982878	1234.699932018035	460.085182214952	335.336509546872	1191.627247930019	319.615598356637	289.099034891331	1298.145528821004	239.708268606036	341.478682789269	981.812843822207	397.385327321300	571.726154534584	897.196229900702	302.189302700963	630.851812746823	928.336935982957	204.119827912122	564.867746222195	781.674214520262	45.902597982899	522.093503999584	950.565465996199	96.472846219520	570.839304736233	858.748595424776	37.416344111906	602.140131950746	1067.210575856225	40.557423832656	608.364583866690	1249.334969993858	51.876003433249	388.021235307251	1324.283057294482	60.073891642906	309.145244851381	1380.942533920269	150.103438932641	322.865409862470	1517.753135358184	140.746545857027	301.866513540811	884.490825505919	1107.000807966333	238.363764656296	824.862501551028	855.981140113481	255.720111055590	1279.596289839927	1140.955637244726	754.335407704377	1511.531687002947	1218.979774737922	689.493504931367	
20	25.283071428571	883.154638539432	1003.429403346490	514.327599821713	1035.351351410021	1427.528533453519	320.404671812387	1160.934645414894	1357.335510815365	464.677913352119	1103.214663346312	1430.576763210267	648.537882446172	1038.344730986968	1485.231415856317	478.539346747317	1114.679997717077	930.310430437864	606.765749969787	1078.272754929390	952.999124411878	334.029202306337	1099.147361944166	716.340297873766	580.871448114446	987.537355056928	628.331562852486	642.543066337936	1042.078460440012	560.016485272927	562.097331825111	1018.149403658499	477.419561420288	565.822064277865	1153.500418700187	771.145439371488	366.470057180229	1106.477148485633	640.396704175847	288.677319501628	1212.026581773144	585.004650822141	349.634634059877	1241.870281047180	527.088307500420	346.372179192615	1234.527744839633	456.565246876002	337.199444980869	1188.700741302585	316.732727728970	292.346863732505	1293.589808742105	235.301145566254	345.089532609791	977.326691156330	396.289956857804	571.290248794942	891.452575518382	302.342596874492	630.626538085161	921.163911818255	203.756460815038	564.808637051634	772.735145330480	46.568558082823	522.321099470916	941.713558524360	96.486697485389	570.888208216847	849.818347142600	37.599505383236	602.187756941320	1058.243480114931	40.268162085947	608.473729936641	1241.494450175600	49.350270801668	392.973403626309	1315.476413087265	56.291792786152	313.133180742596	1374.291126076428	144.480886383681	326.589495622063	1510.373787247043	131.940204060818	303.701916319079	881.048608005538	1108.428242106371	237.902498603979	817.834263659652	858.247603513980	256.638835719126	1282.788919740493	1142.667002439950	752.535505602088	1511.269387072145	1228.306314011727	686.721776220194	
21	25.294285714286	884.013225961295	1002.134587083569	512.004834282534	1035.401229941382	1426.484635426173	319.058988238229	1161.006103004039	1356.341233384177	463.338309338679	1102.823782811710	1429.379321415709	647.074128686728	1038.093807873771	1483.883006982155	477.214774808360	1114.937494405001	928.969037281585	605.594459244264	1080.031934514904	951.369675031943	332.415255177154	1098.187079522566	714.690826891040	580.414631658736	985.534008906115	627.540934162512	641.705602402956	1039.960790693051	558.570710082982	561.684274310822	1015.081121224923	475.810104938530	565.221173698856	1155.744938068754	770.156963834566	365.923904246136	1107.865015958076	638.201941380327	289.944038459716	1213.702119521676	583.387782985872	350.161666996383	1242.588267111471	523.901950005147	347.826793365060	1234.174148169582	452.638702909276	339.281542104802	1185.064563040340	313.673871834483	295.628992987575	1287.852637428847	230.244201921765	348.915993421501	973.151074338878	395.074861651975	570.769065348388	885.898480483547	302.481979973797	630.264267231656	914.104271345809	203.351410882566	564.712181793413	763.796256380500	47.308725723852	522.571949098744	932.894841709158	96.541651674194	570.962752498172	840.895493055068	37.823650108183	602.258991976488	1049.300338242660	39.987673419736	608.588726531263	1231.441848744872	46.649675476459	397.865294700426	1304.427994860932	52.146898188374	317.010186124555	1366.026634102218	137.869333184376	330.553093024065	1501.242666037613	121.177204213262	305.590593303331	878.433332258314	1109.330997935981	237.346917672752	811.826687551240	860.024305283773	257.235768589399	1285.294091188178	1143.982408953724	750.816594017947	1510.486672383266	1236.265065827679	684.213351151934	
